# xmcd
#
# Track frame offsets: 
#        150
#        17865
#        31664
#        46267
#        61857
#        76032
#        93214
#        116506
#        133815
#        152005
#
# Disc length: 2377 seconds
#
# Revision: 0
# Processed by: cddbd v1.5.2PL0 Copyright (c) Steve Scherf et al.
# Submitted via: ExactAudioCopy v0.99pb5
#
DISCID=6c09470a
DTITLE=Glyn Bailey and the Many Splendid Things - The Disturbance
DYEAR=2010
DGENRE=Country
TTITLE0=The Old Illawalla
TTITLE1=Beautiful Corpse
TTITLE2=Fuktup
TTITLE3=God For The Day
TTITLE4=The Bolan Tree
TTITLE5=Louis
TTITLE6=Traffic Light Man
TTITLE7=BBC Bunker
TTITLE8=Cherry Tree
TTITLE9=Waiting Game
EXTD=
EXTT0=
EXTT1=
EXTT2=
EXTT3=
EXTT4=
EXTT5=
EXTT6=
EXTT7=
EXTT8=
EXTT9=
PLAYORDER=
